<svg height="512" viewBox="0 0 512 512" width="512" xmlns="http://www.w3.org/2000/svg"><g fill="#003da6"><path d="m255.794 498.641c-133.989 0-242.997-109.007-242.997-242.992s109.008-242.994 242.997-242.994c133.996 0 243.004 109.008 243.004 242.993s-109.008 242.993-243.004 242.993m0-473.585c-127.15 0-230.593 103.446-230.593 230.593s103.443 230.596 230.593 230.596c127.156 0 230.601-103.449 230.601-230.596s-103.445-230.593-230.601-230.593"/><path d="m315.431 217.73c.021-8.239.034-16.475.034-24.71v-3.51h-119.399l.014 28.861c.028 19.863.042 39.715-.048 59.567-.063 13.022 4.889 23.483 15.14 31.973 11.241 9.325 27.475 14.675 44.524 14.675 16.666 0 32.685-5.147 43.953-14.124 10.844-8.657 16.046-19.417 15.899-32.886-.2-19.961-.159-40.233-.117-59.846m-87.948 15.917c.007 22.565.007 45.126-.014 67.691 0 .759-.181 1.505-.313 2.598h-4.715c-.077-1.532-.216-2.891-.216-4.255-.014-21.785-.014-43.584-.007-65.372 0-1.083-.223-2.274.153-3.208.342-.856 1.421-2.047 2.069-1.992.975.094 2.103.971 2.723 1.835.473.642.32 1.784.32 2.703m9.925-.229c.007 22.61.007 45.217-.014 67.822 0 .753-.104 1.505-.194 2.641h-4.694c-.069-1.582-.195-2.933-.195-4.283-.014-21.841-.014-43.671-.007-65.501 0-1.083-.216-2.288.195-3.21.362-.811 1.441-1.776 2.235-1.804.808-.028 1.922.836 2.417 1.619.431.686.257 1.797.257 2.716m9.924.571c.007 22.272.007 44.548-.007 66.821 0 .891-.104 1.797-.202 3.154h-5.223v-4.645c0-21.646 0-43.298 0-64.958 0-.926-.251-1.971.097-2.754.432-.989 1.498-2.566 2.048-2.472 1.128.191 2.305 1.167 3.043 2.138.474.605.244 1.79.244 2.716m23.233-.547c0 22.735 0 45.471-.021 68.202 0 .599-.133 1.199-.272 2.319h-4.763c-.126-1.267-.362-2.444-.362-3.628-.021-22.119-.014-44.231-.008-66.354 0-.926-.243-2.03.175-2.73.551-.937 1.637-2.134 2.5-2.149.878-.014 1.922 1.17 2.584 2.069.383.516.167 1.491.167 2.271m9.994 70.516h-5.208v-4.639c0-21.66 0-43.298.007-64.951 0-1.086-.217-2.271.152-3.217.328-.863 1.254-1.947 2.041-2.055.808-.111 2.151.606 2.577 1.355.563.992.641 2.354.641 3.559.034 22.422.028 44.848.007 67.266-.001.759-.119 1.504-.217 2.682m9.688-70.453c0 22.722 0 45.443-.014 68.153 0 .613-.098 1.213-.195 2.306h-4.854c-.076-1.622-.202-3.112-.202-4.604-.014-21.638-.014-43.277-.006-64.922 0-1.076-.244-2.309.188-3.193.46-.937 1.603-2.135 2.424-2.121.87.011 1.887 1.209 2.521 2.107.368.533.138 1.504.138 2.274m8.378-16.196h-84.576v-4.83h84.576zm-.613-9.684c-16.999-.021-34.007-.007-51.007-.007-10.822 0-21.645-.045-32.461.021-3.406.021-5.606-1.121-6.059-5.498h95.518c.473 4.777-2.369 5.491-5.991 5.484"/><path d="m345.413 273.202 117.811-17.797-79.187-11.962h2.814c18.204-13.351 36.409-28.004 55.562-42.041-10.37-2.503-19.382-4.669-28.395-6.867-4.694-1.149-6.344-4.029-4.805-8.681 1.399-4.221 2.8-8.448 4.158-12.686 3.523-10.941 7.033-21.886 10.801-33.604-2.061.592-3.147.864-4.213 1.205-13.811 4.451-27.614 8.963-41.446 13.344-6.372 2.01-8.655.505-8.677-5.613-.028-6.198.243-12.393.313-18.598.062-4.648.014-9.308.014-14.535-22.217 21.559-43.514 42.232-66.169 64.226 8.817-27.771 17.195-54.156 25.705-80.979-1.365.258-1.775.251-2.117.408-7.193 3.336-14.388 6.696-21.568 10.057-6.672 3.117-13.268 6.383-20.002 9.336-5.523 2.41-7.585 1.327-9.381-4.395-1.616-5.164-3.184-10.356-4.798-15.527-5.043-16.165-10.106-32.333-15.49-49.562-.877 2.594-1.393 4.043-1.845 5.505-6.178 19.769-12.348 39.537-18.532 59.306-1.895 6.077-3.942 7.132-9.75 4.538-8.483-3.795-16.854-7.832-25.295-11.725-5.885-2.72-11.791-5.362-18.79-8.545 8.775 27.635 17.147 54.016 25.859 81.459-22.795-22.081-44.301-42.918-66.016-63.965 0 10.262-.188 20.461.049 30.643.216 9.085-1.177 10.283-9.974 7.445-1.476-.477-2.932-.996-4.401-1.469-12.808-4.147-25.616-8.292-39.342-12.735 4.938 15.36 9.548 29.672 14.117 43.995 2.521 7.929 1.477 9.757-6.728 11.794-8.162 2.034-16.345 3.994-25.594 6.253 19.695 14.493 38.388 28.248 57.087 42.013h1.281l-79.186 11.962 117.811 17.797-102.078 61.44 115.624-28.784-70.738 95.894 95.893-70.73-28.777 115.63 61.44-102.092 17.794 117.818 17.801-117.818 61.44 102.092-28.784-115.63 95.894 70.738-70.737-95.895 115.63 28.777zm-43.835 39.683c-11.972 9.549-28.269 14.807-45.882 14.807-17.766 0-34.717-5.612-46.508-15.391-10.851-8.999-16.317-20.573-16.262-34.37.098-19.852.083-39.708.063-59.556l-.014-31.97h125.59v6.619c0 8.235-.014 16.482-.035 24.717-.041 19.598-.083 39.865.126 59.793.159 14.5-5.433 26.061-17.078 35.351"/></g></svg>